<svg xmlns="http://www.w3.org/2000/svg" xmlns:xlink="http://www.w3.org/1999/xlink" width="94" zoomAndPan="magnify" viewBox="0 0 70.5 59.249999" height="79" preserveAspectRatio="xMidYMid meet" version="1.0"><defs><clipPath id="9a1b8095c1"><path d="M 0.195312 4.480469 L 69.8125 4.480469 L 69.8125 58.507812 L 0.195312 58.507812 Z M 0.195312 4.480469 " clip-rule="nonzero"/></clipPath><clipPath id="f9a50a8521"><path d="M 29 0.351562 L 32 0.351562 L 32 4 L 29 4 Z M 29 0.351562 " clip-rule="nonzero"/></clipPath><clipPath id="ccf8fc35d4"><path d="M 38 0.351562 L 41 0.351562 L 41 4 L 38 4 Z M 38 0.351562 " clip-rule="nonzero"/></clipPath></defs><g clip-path="url(#9a1b8095c1)"><path fill="#ffcc00" d="M 57 30.851562 C 51.566406 30.851562 47.117188 28 44.113281 25.289062 C 43.902344 25.003906 43.683594 24.726562 43.449219 24.460938 C 42.972656 23.933594 42.449219 23.460938 41.882812 23.046875 C 41.476562 22.59375 41.128906 22.179688 40.84375 21.820312 C 43.113281 20.492188 47.953125 18.097656 53.332031 18.097656 C 59.308594 18.097656 64.3125 21.042969 68.214844 26.863281 C 64.46875 29.511719 60.699219 30.851562 57 30.851562 Z M 51.398438 37.425781 C 48.054688 35.238281 46.664062 31.503906 46.089844 28.8125 C 49.003906 30.785156 52.664062 32.378906 56.898438 32.40625 C 58.101562 34.261719 58.742188 36.558594 58.808594 39.273438 C 55.878906 39.34375 53.382812 38.722656 51.398438 37.425781 Z M 35.089844 52.492188 C 32.046875 52.449219 29.679688 50.191406 28.027344 46.941406 L 42.152344 46.941406 C 40.503906 50.191406 38.136719 52.449219 35.089844 52.492188 Z M 19.101562 37.425781 C 17.117188 38.722656 14.621094 39.34375 11.691406 39.273438 C 11.757812 36.558594 12.398438 34.261719 13.601562 32.40625 C 17.765625 32.378906 21.371094 30.835938 24.261719 28.910156 C 24.03125 29.640625 23.851562 30.410156 23.722656 31.226562 C 22.917969 33.449219 21.523438 35.839844 19.101562 37.425781 Z M 17.167969 18.097656 C 22.546875 18.097656 27.386719 20.492188 29.65625 21.820312 C 29.484375 22.039062 29.28125 22.28125 29.0625 22.539062 C 28.199219 23.0625 27.414062 23.703125 26.734375 24.460938 C 26.316406 24.925781 25.945312 25.429688 25.605469 25.964844 C 22.632812 28.453125 18.480469 30.851562 13.5 30.851562 C 9.800781 30.851562 6.03125 29.511719 2.285156 26.863281 C 6.1875 21.042969 11.191406 18.097656 17.167969 18.097656 Z M 35.089844 6.261719 C 39.128906 6.261719 42.414062 9.542969 42.414062 13.582031 C 42.414062 17.617188 39.128906 20.902344 35.089844 20.902344 C 31.054688 20.902344 27.769531 17.617188 27.769531 13.582031 C 27.769531 9.542969 31.054688 6.261719 35.089844 6.261719 Z M 25.964844 29.472656 C 26.324219 28.324219 26.816406 27.300781 27.441406 26.425781 C 28.238281 25.707031 28.9375 25 29.53125 24.351562 C 31.078125 23.277344 32.988281 22.695312 35.089844 22.679688 C 37.925781 22.699219 40.421875 23.753906 42.125 25.648438 C 43.050781 26.679688 43.75 27.96875 44.21875 29.472656 Z M 25.722656 39.6875 L 44.457031 39.6875 C 44.121094 41.605469 43.617188 43.472656 42.949219 45.167969 L 27.234375 45.167969 C 26.566406 43.472656 26.058594 41.605469 25.722656 39.6875 Z M 44.769531 37.492188 C 44.753906 37.632812 44.738281 37.773438 44.722656 37.914062 L 25.460938 37.914062 C 25.445312 37.773438 25.425781 37.632812 25.414062 37.492188 C 25.164062 35.179688 25.207031 33.085938 25.53125 31.25 L 44.652344 31.25 C 44.976562 33.085938 45.019531 35.179688 44.769531 37.492188 Z M 70.304688 27.25 L 70.269531 27.191406 C 65.253906 18.960938 58.976562 16.542969 53.332031 16.542969 C 48.882812 16.542969 44.828125 18.042969 42.09375 19.386719 C 43.402344 17.808594 44.191406 15.785156 44.191406 13.582031 C 44.191406 8.566406 40.109375 4.484375 35.089844 4.484375 C 30.074219 4.484375 25.992188 8.566406 25.992188 13.582031 C 25.992188 15.671875 26.703125 17.601562 27.894531 19.140625 C 25.179688 17.867188 21.347656 16.542969 17.167969 16.542969 C 11.523438 16.542969 5.246094 18.960938 0.230469 27.191406 L 0.195312 27.25 L 0.25 27.289062 C 4.429688 30.527344 8.339844 31.996094 11.886719 32.328125 C 10.679688 34.53125 10.109375 37.203125 10.195312 40.335938 L 10.207031 40.6875 L 10.558594 40.71875 C 14.273438 41 17.425781 40.3125 19.921875 38.679688 C 21.441406 37.6875 22.597656 36.429688 23.480469 35.082031 C 23.496094 35.917969 23.546875 36.78125 23.644531 37.679688 C 24.605469 46.597656 28.261719 52.714844 33.191406 54.007812 C 33.34375 55 33.800781 56.96875 35.089844 58.527344 C 35.089844 58.527344 36.636719 56.5625 37.046875 53.996094 C 41.945312 52.671875 45.578125 46.566406 46.539062 37.679688 C 46.652344 36.605469 46.710938 35.574219 46.714844 34.589844 C 47.628906 36.121094 48.878906 37.570312 50.578125 38.679688 C 53.074219 40.3125 56.226562 41 59.941406 40.71875 L 60.292969 40.6875 L 60.304688 40.335938 C 60.390625 37.203125 59.820312 34.53125 58.613281 32.328125 C 62.160156 31.996094 66.070312 30.527344 70.25 27.289062 L 70.304688 27.25 " fill-opacity="1" fill-rule="nonzero"/></g><g clip-path="url(#f9a50a8521)"><path fill="#ffcc00" d="M 30.574219 3.054688 C 31.308594 3.054688 31.90625 2.457031 31.90625 1.722656 C 31.90625 0.988281 31.308594 0.390625 30.574219 0.390625 C 29.839844 0.390625 29.242188 0.988281 29.242188 1.722656 C 29.242188 2.457031 29.839844 3.054688 30.574219 3.054688 " fill-opacity="1" fill-rule="nonzero"/></g><g clip-path="url(#ccf8fc35d4)"><path fill="#ffcc00" d="M 39.410156 3.019531 C 40.144531 3.019531 40.738281 2.421875 40.738281 1.6875 C 40.738281 0.953125 40.144531 0.355469 39.410156 0.355469 C 38.675781 0.355469 38.078125 0.953125 38.078125 1.6875 C 38.078125 2.421875 38.675781 3.019531 39.410156 3.019531 " fill-opacity="1" fill-rule="nonzero"/></g></svg>